<?xml version="1.0" encoding="utf-8" standalone="no"?>
<!DOCTYPE svg PUBLIC "-//W3C//DTD SVG 1.1//EN"
  "http://www.w3.org/Graphics/SVG/1.1/DTD/svg11.dtd">
<!-- Created with matplotlib (https://matplotlib.org/) -->
<svg height="871.929938pt" version="1.1" viewBox="0 0 1220.309063 871.929938" width="1220.309063pt" xmlns="http://www.w3.org/2000/svg" xmlns:xlink="http://www.w3.org/1999/xlink">
 <defs>
  <style type="text/css">
*{stroke-linecap:butt;stroke-linejoin:round;}
  </style>
 </defs>
 <g id="figure_1">
  <g id="patch_1">
   <path d="M 0 871.929938 
L 1220.309063 871.929938 
L 1220.309063 0 
L 0 0 
z
" style="fill:none;"/>
  </g>
  <g id="axes_1">
   <g id="patch_2">
    <path d="M 106.848125 798.777125 
L 1178.208125 798.777125 
L 1178.208125 15.993125 
L 106.848125 15.993125 
z
" style="fill:#ffffff;"/>
   </g>
   <g id="matplotlib.axis_1">
    <g id="xtick_1">
     <g id="line2d_1">
      <path clip-path="url(#pdb38c122a7)" d="M 106.848125 798.777125 
L 106.848125 15.993125 
" style="fill:none;stroke:#b0b0b0;stroke-linecap:square;stroke-width:0.8;"/>
     </g>
     <g id="line2d_2">
      <defs>
       <path d="M 0 0 
L 0 8 
" id="mcb20de0129" style="stroke:#000000;"/>
      </defs>
      <g>
       <use style="stroke:#000000;" x="106.848125" xlink:href="#mcb20de0129" y="798.777125"/>
      </g>
     </g>
     <g id="text_1">
      <!-- 102.87 -->
      <defs>
       <path d="M 27.828125 0 
L 27.828125 64.703125 
Q 25.59375 62.453125 20.234375 59.671875 
Q 14.890625 56.890625 10.359375 55.765625 
L 10.359375 65.140625 
Q 16.359375 66.796875 23.1875 70.4375 
Q 30.03125 74.078125 33.6875 77.296875 
L 37.3125 77.296875 
L 37.3125 0 
z
" id="MicrosoftYaHei-49"/>
       <path d="M 4.4375 36.328125 
Q 4.4375 56.34375 11.078125 66.625 
Q 17.71875 76.90625 30.328125 76.90625 
Q 54.34375 76.90625 54.34375 38.140625 
Q 54.34375 19 47.578125 8.859375 
Q 40.828125 -1.265625 28.609375 -1.265625 
Q 17.09375 -1.265625 10.765625 8.34375 
Q 4.4375 17.96875 4.4375 36.328125 
z
M 14.203125 36.765625 
Q 14.203125 6.640625 29.5 6.640625 
Q 44.53125 6.640625 44.53125 37.25 
Q 44.53125 68.953125 29.78125 68.953125 
Q 14.203125 68.953125 14.203125 36.765625 
z
" id="MicrosoftYaHei-48"/>
       <path d="M 41.65625 55.8125 
Q 41.65625 61.921875 37.796875 65.40625 
Q 33.9375 68.890625 27.296875 68.890625 
Q 22.609375 68.890625 17.8125 66.5 
Q 13.03125 64.109375 8.890625 59.671875 
L 8.890625 68.953125 
Q 12.59375 72.796875 17.296875 74.84375 
Q 22.015625 76.90625 28.375 76.90625 
Q 38.625 76.90625 44.875 71.40625 
Q 51.125 65.921875 51.125 56.546875 
Q 51.125 48.1875 47.28125 42.078125 
Q 43.453125 35.984375 34.1875 29.59375 
Q 24.703125 23.046875 21.5 20.21875 
Q 18.3125 17.390625 17.03125 14.796875 
Q 15.765625 12.203125 15.765625 8.5 
L 53.375 8.5 
L 53.375 0 
L 5.8125 0 
L 5.8125 3.765625 
Q 5.8125 10.296875 7.59375 14.859375 
Q 9.375 19.4375 13.46875 23.75 
Q 17.578125 28.078125 26.265625 34.125 
Q 35.15625 40.375 38.40625 45.09375 
Q 41.65625 49.8125 41.65625 55.8125 
z
" id="MicrosoftYaHei-50"/>
       <path d="M 5.8125 5.03125 
Q 5.8125 7.671875 7.609375 9.46875 
Q 9.421875 11.28125 12.109375 11.28125 
Q 14.84375 11.28125 16.640625 9.453125 
Q 18.453125 7.625 18.453125 5.03125 
Q 18.453125 2.484375 16.640625 0.65625 
Q 14.84375 -1.171875 12.0625 -1.171875 
Q 9.375 -1.171875 7.59375 0.65625 
Q 5.8125 2.484375 5.8125 5.03125 
z
" id="MicrosoftYaHei-46"/>
       <path d="M 4.78125 21.09375 
Q 4.78125 27.640625 8.6875 33.15625 
Q 12.59375 38.671875 18.75 41.015625 
Q 13.8125 43.796875 10.9375 48.140625 
Q 8.0625 52.484375 8.0625 57.5625 
Q 8.0625 62.9375 10.8125 67.375 
Q 13.578125 71.828125 18.484375 74.359375 
Q 23.390625 76.90625 29.296875 76.90625 
Q 35.25 76.90625 40.1875 74.390625 
Q 45.125 71.875 47.859375 67.421875 
Q 50.59375 62.984375 50.59375 57.5625 
Q 50.59375 52.59375 47.78125 48.21875 
Q 44.96875 43.84375 39.984375 41.015625 
Q 46.140625 38.625 50 33.109375 
Q 53.859375 27.59375 53.859375 21.09375 
Q 53.859375 14.65625 50.78125 9.546875 
Q 47.703125 4.4375 42.03125 1.609375 
Q 36.375 -1.21875 29.296875 -1.21875 
Q 22.265625 -1.21875 16.640625 1.609375 
Q 11.03125 4.4375 7.90625 9.5625 
Q 4.78125 14.703125 4.78125 21.09375 
z
M 14.15625 21.53125 
Q 14.15625 14.796875 18.3125 10.734375 
Q 22.46875 6.6875 29.34375 6.6875 
Q 36.078125 6.6875 40.34375 10.8125 
Q 44.625 14.9375 44.625 21.53125 
Q 44.625 27.78125 40.296875 32.046875 
Q 35.984375 36.328125 29.34375 36.328125 
Q 22.75 36.328125 18.453125 32.15625 
Q 14.15625 27.984375 14.15625 21.53125 
z
M 16.890625 56.78125 
Q 16.890625 51.703125 20.5 48.0625 
Q 24.125 44.4375 29.34375 44.4375 
Q 34.46875 44.4375 38.203125 48.09375 
Q 41.9375 51.765625 41.9375 56.78125 
Q 41.9375 61.921875 38.34375 65.484375 
Q 34.765625 69.046875 29.34375 69.046875 
Q 23.96875 69.046875 20.421875 65.546875 
Q 16.890625 62.0625 16.890625 56.78125 
z
" id="MicrosoftYaHei-56"/>
       <path d="M 53.46875 69.734375 
Q 41.546875 48.921875 34.734375 31.21875 
Q 27.9375 13.53125 26.3125 0 
L 16.359375 0 
Q 18.171875 13.328125 24.90625 30.421875 
Q 31.640625 47.515625 42.921875 67.1875 
L 5.421875 67.1875 
L 5.421875 75.640625 
L 53.46875 75.640625 
z
" id="MicrosoftYaHei-55"/>
      </defs>
      <g transform="translate(71.947188 827.863375)scale(0.22 -0.22)">
       <use xlink:href="#MicrosoftYaHei-49"/>
       <use x="58.642578" xlink:href="#MicrosoftYaHei-48"/>
       <use x="117.285156" xlink:href="#MicrosoftYaHei-50"/>
       <use x="175.927734" xlink:href="#MicrosoftYaHei-46"/>
       <use x="200" xlink:href="#MicrosoftYaHei-56"/>
       <use x="258.642578" xlink:href="#MicrosoftYaHei-55"/>
      </g>
     </g>
    </g>
    <g id="xtick_2">
     <g id="line2d_3">
      <path clip-path="url(#pdb38c122a7)" d="M 259.899554 798.777125 
L 259.899554 15.993125 
" style="fill:none;stroke:#b0b0b0;stroke-linecap:square;stroke-width:0.8;"/>
     </g>
     <g id="line2d_4">
      <g>
       <use style="stroke:#000000;" x="259.899554" xlink:href="#mcb20de0129" y="798.777125"/>
      </g>
     </g>
     <g id="text_2">
      <!-- 102.88 -->
      <g transform="translate(224.998616 827.863375)scale(0.22 -0.22)">
       <use xlink:href="#MicrosoftYaHei-49"/>
       <use x="58.642578" xlink:href="#MicrosoftYaHei-48"/>
       <use x="117.285156" xlink:href="#MicrosoftYaHei-50"/>
       <use x="175.927734" xlink:href="#MicrosoftYaHei-46"/>
       <use x="200" xlink:href="#MicrosoftYaHei-56"/>
       <use x="258.642578" xlink:href="#MicrosoftYaHei-56"/>
      </g>
     </g>
    </g>
    <g id="xtick_3">
     <g id="line2d_5">
      <path clip-path="url(#pdb38c122a7)" d="M 412.950982 798.777125 
L 412.950982 15.993125 
" style="fill:none;stroke:#b0b0b0;stroke-linecap:square;stroke-width:0.8;"/>
     </g>
     <g id="line2d_6">
      <g>
       <use style="stroke:#000000;" x="412.950982" xlink:href="#mcb20de0129" y="798.777125"/>
      </g>
     </g>
     <g id="text_3">
      <!-- 102.89 -->
      <defs>
       <path d="M 9.03125 10.25 
Q 15.28125 6.640625 22.515625 6.640625 
Q 32.671875 6.640625 38.25 14.640625 
Q 43.84375 22.65625 43.84375 37.40625 
Q 43.75 37.3125 43.65625 37.40625 
Q 38.671875 27.9375 26.90625 27.9375 
Q 17.390625 27.9375 11.140625 34.46875 
Q 4.890625 41.015625 4.890625 51.46875 
Q 4.890625 62.59375 11.71875 69.75 
Q 18.5625 76.90625 29.4375 76.90625 
Q 40.71875 76.90625 47.0625 68.046875 
Q 53.421875 59.1875 53.421875 42.234375 
Q 53.421875 21.296875 45.21875 10.015625 
Q 37.015625 -1.265625 22.515625 -1.265625 
Q 14.546875 -1.265625 9.03125 1.3125 
z
M 14.546875 52.6875 
Q 14.546875 45.0625 18.453125 40.59375 
Q 22.359375 36.140625 29.25 36.140625 
Q 35.203125 36.140625 39.25 40.203125 
Q 43.3125 44.28125 43.3125 50.09375 
Q 43.3125 58.25 39.28125 63.59375 
Q 35.25 68.953125 28.65625 68.953125 
Q 22.5625 68.953125 18.546875 64.3125 
Q 14.546875 59.671875 14.546875 52.6875 
z
" id="MicrosoftYaHei-57"/>
      </defs>
      <g transform="translate(378.050045 827.863375)scale(0.22 -0.22)">
       <use xlink:href="#MicrosoftYaHei-49"/>
       <use x="58.642578" xlink:href="#MicrosoftYaHei-48"/>
       <use x="117.285156" xlink:href="#MicrosoftYaHei-50"/>
       <use x="175.927734" xlink:href="#MicrosoftYaHei-46"/>
       <use x="200" xlink:href="#MicrosoftYaHei-56"/>
       <use x="258.642578" xlink:href="#MicrosoftYaHei-57"/>
      </g>
     </g>
    </g>
    <g id="xtick_4">
     <g id="line2d_7">
      <path clip-path="url(#pdb38c122a7)" d="M 566.002411 798.777125 
L 566.002411 15.993125 
" style="fill:none;stroke:#b0b0b0;stroke-linecap:square;stroke-width:0.8;"/>
     </g>
     <g id="line2d_8">
      <g>
       <use style="stroke:#000000;" x="566.002411" xlink:href="#mcb20de0129" y="798.777125"/>
      </g>
     </g>
     <g id="text_4">
      <!-- 102.90 -->
      <g transform="translate(531.101473 827.863375)scale(0.22 -0.22)">
       <use xlink:href="#MicrosoftYaHei-49"/>
       <use x="58.642578" xlink:href="#MicrosoftYaHei-48"/>
       <use x="117.285156" xlink:href="#MicrosoftYaHei-50"/>
       <use x="175.927734" xlink:href="#MicrosoftYaHei-46"/>
       <use x="200" xlink:href="#MicrosoftYaHei-57"/>
       <use x="258.642578" xlink:href="#MicrosoftYaHei-48"/>
      </g>
     </g>
    </g>
    <g id="xtick_5">
     <g id="line2d_9">
      <path clip-path="url(#pdb38c122a7)" d="M 719.053839 798.777125 
L 719.053839 15.993125 
" style="fill:none;stroke:#b0b0b0;stroke-linecap:square;stroke-width:0.8;"/>
     </g>
     <g id="line2d_10">
      <g>
       <use style="stroke:#000000;" x="719.053839" xlink:href="#mcb20de0129" y="798.777125"/>
      </g>
     </g>
     <g id="text_5">
      <!-- 102.91 -->
      <g transform="translate(684.152902 827.863375)scale(0.22 -0.22)">
       <use xlink:href="#MicrosoftYaHei-49"/>
       <use x="58.642578" xlink:href="#MicrosoftYaHei-48"/>
       <use x="117.285156" xlink:href="#MicrosoftYaHei-50"/>
       <use x="175.927734" xlink:href="#MicrosoftYaHei-46"/>
       <use x="200" xlink:href="#MicrosoftYaHei-57"/>
       <use x="258.642578" xlink:href="#MicrosoftYaHei-49"/>
      </g>
     </g>
    </g>
    <g id="xtick_6">
     <g id="line2d_11">
      <path clip-path="url(#pdb38c122a7)" d="M 872.105268 798.777125 
L 872.105268 15.993125 
" style="fill:none;stroke:#b0b0b0;stroke-linecap:square;stroke-width:0.8;"/>
     </g>
     <g id="line2d_12">
      <g>
       <use style="stroke:#000000;" x="872.105268" xlink:href="#mcb20de0129" y="798.777125"/>
      </g>
     </g>
     <g id="text_6">
      <!-- 102.92 -->
      <g transform="translate(837.20433 827.863375)scale(0.22 -0.22)">
       <use xlink:href="#MicrosoftYaHei-49"/>
       <use x="58.642578" xlink:href="#MicrosoftYaHei-48"/>
       <use x="117.285156" xlink:href="#MicrosoftYaHei-50"/>
       <use x="175.927734" xlink:href="#MicrosoftYaHei-46"/>
       <use x="200" xlink:href="#MicrosoftYaHei-57"/>
       <use x="258.642578" xlink:href="#MicrosoftYaHei-50"/>
      </g>
     </g>
    </g>
    <g id="xtick_7">
     <g id="line2d_13">
      <path clip-path="url(#pdb38c122a7)" d="M 1025.156696 798.777125 
L 1025.156696 15.993125 
" style="fill:none;stroke:#b0b0b0;stroke-linecap:square;stroke-width:0.8;"/>
     </g>
     <g id="line2d_14">
      <g>
       <use style="stroke:#000000;" x="1025.156696" xlink:href="#mcb20de0129" y="798.777125"/>
      </g>
     </g>
     <g id="text_7">
      <!-- 102.93 -->
      <defs>
       <path d="M 6.984375 12.640625 
Q 14.75 6.640625 24.515625 6.640625 
Q 32.328125 6.640625 36.890625 10.46875 
Q 41.453125 14.3125 41.453125 20.75 
Q 41.453125 35.109375 20.90625 35.109375 
L 14.59375 35.109375 
L 14.59375 43.015625 
L 20.609375 43.015625 
Q 38.8125 43.015625 38.8125 56.5 
Q 38.8125 68.953125 24.90625 68.953125 
Q 16.9375 68.953125 9.90625 63.578125 
L 9.90625 72.609375 
Q 17.328125 76.90625 27.25 76.90625 
Q 36.921875 76.90625 42.78125 71.84375 
Q 48.640625 66.796875 48.640625 58.734375 
Q 48.640625 43.890625 33.5 39.65625 
L 33.5 39.453125 
Q 41.703125 38.578125 46.453125 33.671875 
Q 51.21875 28.765625 51.21875 21.4375 
Q 51.21875 11.234375 43.875 4.984375 
Q 36.53125 -1.265625 24.3125 -1.265625 
Q 13.578125 -1.265625 6.984375 2.734375 
z
" id="MicrosoftYaHei-51"/>
      </defs>
      <g transform="translate(990.255759 827.863375)scale(0.22 -0.22)">
       <use xlink:href="#MicrosoftYaHei-49"/>
       <use x="58.642578" xlink:href="#MicrosoftYaHei-48"/>
       <use x="117.285156" xlink:href="#MicrosoftYaHei-50"/>
       <use x="175.927734" xlink:href="#MicrosoftYaHei-46"/>
       <use x="200" xlink:href="#MicrosoftYaHei-57"/>
       <use x="258.642578" xlink:href="#MicrosoftYaHei-51"/>
      </g>
     </g>
    </g>
    <g id="xtick_8">
     <g id="line2d_15">
      <path clip-path="url(#pdb38c122a7)" d="M 1178.208125 798.777125 
L 1178.208125 15.993125 
" style="fill:none;stroke:#b0b0b0;stroke-linecap:square;stroke-width:0.8;"/>
     </g>
     <g id="line2d_16">
      <g>
       <use style="stroke:#000000;" x="1178.208125" xlink:href="#mcb20de0129" y="798.777125"/>
      </g>
     </g>
     <g id="text_8">
      <!-- 102.94 -->
      <defs>
       <path d="M 45.40625 75.640625 
L 45.40625 25.6875 
L 56.734375 25.6875 
L 56.734375 17.78125 
L 45.40625 17.78125 
L 45.40625 0 
L 36.140625 0 
L 36.140625 17.78125 
L 0.828125 17.78125 
L 0.828125 25.25 
Q 10.25 35.84375 19.765625 49.65625 
Q 29.296875 63.484375 35.5 75.640625 
z
M 11.578125 25.6875 
L 36.140625 25.6875 
L 36.140625 61.71875 
Q 31.0625 52.59375 25.25 44.015625 
Q 19.4375 35.453125 11.578125 25.6875 
z
" id="MicrosoftYaHei-52"/>
      </defs>
      <g transform="translate(1143.307188 827.863375)scale(0.22 -0.22)">
       <use xlink:href="#MicrosoftYaHei-49"/>
       <use x="58.642578" xlink:href="#MicrosoftYaHei-48"/>
       <use x="117.285156" xlink:href="#MicrosoftYaHei-50"/>
       <use x="175.927734" xlink:href="#MicrosoftYaHei-46"/>
       <use x="200" xlink:href="#MicrosoftYaHei-57"/>
       <use x="258.642578" xlink:href="#MicrosoftYaHei-52"/>
      </g>
     </g>
    </g>
    <g id="text_9">
     <!-- Longitude -->
     <defs>
      <path d="M 49.65625 0 
L 9.765625 0 
L 9.765625 75.640625 
L 19.53125 75.640625 
L 19.53125 8.640625 
L 49.65625 8.640625 
z
" id="MicrosoftYaHei-76"/>
      <path d="M 4.9375 26.421875 
Q 4.9375 39.796875 12.40625 47.53125 
Q 19.875 55.28125 32.671875 55.28125 
Q 44.828125 55.28125 51.734375 47.828125 
Q 58.640625 40.375 58.640625 27.25 
Q 58.640625 14.453125 51.265625 6.59375 
Q 43.890625 -1.265625 31.5 -1.265625 
Q 19.390625 -1.265625 12.15625 6.34375 
Q 4.9375 13.96875 4.9375 26.421875 
z
M 14.703125 26.703125 
Q 14.703125 17.390625 19.40625 12.015625 
Q 24.125 6.640625 32.078125 6.640625 
Q 40.28125 6.640625 44.578125 11.890625 
Q 48.875 17.140625 48.875 26.953125 
Q 48.875 36.8125 44.578125 42.078125 
Q 40.28125 47.359375 32.078125 47.359375 
Q 24.03125 47.359375 19.359375 41.84375 
Q 14.703125 36.328125 14.703125 26.703125 
z
" id="MicrosoftYaHei-111"/>
      <path d="M 54.203125 0 
L 44.671875 0 
L 44.671875 30.71875 
Q 44.671875 47.359375 32.515625 47.359375 
Q 26.21875 47.359375 22.15625 42.671875 
Q 18.109375 37.984375 18.109375 30.8125 
L 18.109375 0 
L 8.546875 0 
L 8.546875 54 
L 18.109375 54 
L 18.109375 45.0625 
L 18.3125 45.0625 
Q 24.421875 55.28125 36.03125 55.28125 
Q 44.921875 55.28125 49.5625 49.578125 
Q 54.203125 43.890625 54.203125 33.015625 
z
" id="MicrosoftYaHei-110"/>
      <path d="M 55.421875 4.546875 
Q 55.421875 -25.4375 26.3125 -25.4375 
Q 16.265625 -25.4375 8.84375 -21.6875 
L 8.84375 -12.453125 
Q 17.875 -17.484375 26.171875 -17.484375 
Q 45.84375 -17.484375 45.84375 3.21875 
L 45.84375 8.9375 
L 45.65625 8.9375 
Q 39.5 -1.265625 27.296875 -1.265625 
Q 17.140625 -1.265625 11.03125 6 
Q 4.9375 13.28125 4.9375 25.296875 
Q 4.9375 39.109375 11.671875 47.1875 
Q 18.40625 55.28125 29.640625 55.28125 
Q 40.4375 55.28125 45.65625 46.6875 
L 45.84375 46.6875 
L 45.84375 54 
L 55.421875 54 
z
M 45.84375 32.125 
Q 45.90625 38.375 41.65625 42.859375 
Q 37.40625 47.359375 31.203125 47.359375 
Q 23.390625 47.359375 19.046875 41.625 
Q 14.703125 35.890625 14.703125 25.875 
Q 14.703125 17.28125 18.890625 11.953125 
Q 23.09375 6.640625 30.03125 6.640625 
Q 37.015625 6.640625 41.453125 11.71875 
Q 45.90625 16.796875 45.84375 24.609375 
z
" id="MicrosoftYaHei-103"/>
      <path d="M 7.375 73.046875 
Q 7.375 75.59375 9.109375 77.3125 
Q 10.84375 79.046875 13.375 79.046875 
Q 15.96875 79.046875 17.75 77.34375 
Q 19.53125 75.640625 19.53125 73.046875 
Q 19.53125 70.515625 17.75 68.828125 
Q 15.96875 67.140625 13.375 67.140625 
Q 10.796875 67.140625 9.078125 68.828125 
Q 7.375 70.515625 7.375 73.046875 
z
M 8.5 0 
L 8.5 54 
L 18.0625 54 
L 18.0625 0 
z
" id="MicrosoftYaHei-105"/>
      <path d="M 34.46875 0.53125 
Q 31.34375 -1.171875 26.03125 -1.171875 
Q 11.53125 -1.171875 11.53125 14.890625 
L 11.53125 46.09375 
L 2.25 46.09375 
L 2.25 54 
L 11.53125 54 
L 11.53125 67 
L 21.046875 70.015625 
L 21.046875 54 
L 34.46875 54 
L 34.46875 46.09375 
L 21.046875 46.09375 
L 21.046875 16.609375 
Q 21.046875 11.28125 22.84375 8.984375 
Q 24.65625 6.6875 28.859375 6.6875 
Q 32.078125 6.6875 34.46875 8.5 
z
" id="MicrosoftYaHei-116"/>
      <path d="M 53.125 0 
L 43.5 0 
L 43.5 8.5 
L 43.3125 8.5 
Q 37.890625 -1.265625 26.65625 -1.265625 
Q 7.46875 -1.265625 7.46875 21.6875 
L 7.46875 54 
L 16.9375 54 
L 16.9375 23.09375 
Q 16.9375 6.640625 29.546875 6.640625 
Q 35.796875 6.640625 39.640625 11.25 
Q 43.5 15.875 43.5 22.90625 
L 43.5 54 
L 53.125 54 
z
" id="MicrosoftYaHei-117"/>
      <path d="M 55.421875 0 
L 45.84375 0 
L 45.84375 8.984375 
L 45.65625 8.984375 
Q 39.75 -1.265625 27.296875 -1.265625 
Q 17.046875 -1.265625 10.984375 6.03125 
Q 4.9375 13.328125 4.9375 25.734375 
Q 4.9375 39.109375 11.765625 47.1875 
Q 18.609375 55.28125 29.640625 55.28125 
Q 40.671875 55.28125 45.65625 46.6875 
L 45.84375 46.6875 
L 45.84375 79.9375 
L 55.421875 79.9375 
z
M 45.90625 32.125 
Q 45.90625 38.625 41.625 42.984375 
Q 37.359375 47.359375 31.109375 47.359375 
Q 23.484375 47.359375 19.09375 41.671875 
Q 14.703125 35.984375 14.703125 26.171875 
Q 14.703125 17.140625 18.921875 11.890625 
Q 23.140625 6.640625 30.171875 6.640625 
Q 37.109375 6.640625 41.5 11.78125 
Q 45.90625 16.9375 45.90625 24.609375 
z
" id="MicrosoftYaHei-100"/>
      <path d="M 52.546875 24.5625 
L 14.75 24.5625 
Q 14.984375 15.921875 19.46875 11.203125 
Q 23.96875 6.5 32.03125 6.5 
Q 41.109375 6.5 48.6875 12.3125 
L 48.6875 3.765625 
Q 41.546875 -1.265625 29.78125 -1.265625 
Q 18.0625 -1.265625 11.5 6.15625 
Q 4.9375 13.578125 4.9375 26.765625 
Q 4.9375 39.15625 12.140625 47.21875 
Q 19.34375 55.28125 30.03125 55.28125 
Q 40.625 55.28125 46.578125 48.46875 
Q 52.546875 41.65625 52.546875 29.390625 
z
M 42.96875 32.234375 
Q 42.921875 39.546875 39.5 43.546875 
Q 36.078125 47.5625 29.890625 47.5625 
Q 24.171875 47.5625 20 43.3125 
Q 15.828125 39.0625 14.75 32.234375 
z
" id="MicrosoftYaHei-101"/>
     </defs>
     <g transform="translate(579.260781 858.116188)scale(0.26 -0.26)">
      <use xlink:href="#MicrosoftYaHei-76"/>
      <use x="51.318359" xlink:href="#MicrosoftYaHei-111"/>
      <use x="114.892578" xlink:href="#MicrosoftYaHei-110"/>
      <use x="176.513672" xlink:href="#MicrosoftYaHei-103"/>
      <use x="240.478516" xlink:href="#MicrosoftYaHei-105"/>
      <use x="267.089844" xlink:href="#MicrosoftYaHei-116"/>
      <use x="304.345703" xlink:href="#MicrosoftYaHei-117"/>
      <use x="365.966797" xlink:href="#MicrosoftYaHei-100"/>
      <use x="429.931641" xlink:href="#MicrosoftYaHei-101"/>
     </g>
    </g>
   </g>
   <g id="matplotlib.axis_2">
    <g id="ytick_1">
     <g id="line2d_17">
      <path clip-path="url(#pdb38c122a7)" d="M 106.848125 711.801125 
L 1178.208125 711.801125 
" style="fill:none;stroke:#b0b0b0;stroke-linecap:square;stroke-width:0.8;"/>
     </g>
     <g id="line2d_18">
      <defs>
       <path d="M 0 0 
L -8 0 
" id="m555fb0af92" style="stroke:#000000;"/>
      </defs>
      <g>
       <use style="stroke:#000000;" x="106.848125" xlink:href="#m555fb0af92" y="711.801125"/>
      </g>
     </g>
     <g id="text_10">
      <!-- 37.16 -->
      <defs>
       <path d="M 49.703125 65.921875 
Q 43.796875 68.953125 37.359375 68.953125 
Q 27.546875 68.953125 21.578125 60.40625 
Q 15.625 51.859375 15.53125 37.0625 
L 15.765625 37.0625 
Q 21.140625 47.46875 32.90625 47.46875 
Q 42.71875 47.46875 48.578125 41.0625 
Q 54.4375 34.671875 54.4375 24.078125 
Q 54.4375 12.984375 47.671875 5.859375 
Q 40.921875 -1.265625 30.421875 -1.265625 
Q 18.890625 -1.265625 12.328125 7.734375 
Q 5.765625 16.75 5.765625 33.296875 
Q 5.765625 53.328125 14.375 65.109375 
Q 23 76.90625 37.0625 76.90625 
Q 45.125 76.90625 49.703125 74.703125 
z
M 16.109375 24.75 
Q 16.109375 17.28125 20.09375 11.953125 
Q 24.078125 6.640625 30.671875 6.640625 
Q 36.921875 6.640625 40.828125 11.234375 
Q 44.734375 15.828125 44.734375 23.046875 
Q 44.734375 30.859375 41.046875 35.203125 
Q 37.359375 39.546875 30.5625 39.546875 
Q 24.125 39.546875 20.109375 35.15625 
Q 16.109375 30.765625 16.109375 24.75 
z
" id="MicrosoftYaHei-54"/>
      </defs>
      <g transform="translate(38.447188 720.59425)scale(0.22 -0.22)">
       <use xlink:href="#MicrosoftYaHei-51"/>
       <use x="58.642578" xlink:href="#MicrosoftYaHei-55"/>
       <use x="117.285156" xlink:href="#MicrosoftYaHei-46"/>
       <use x="141.357422" xlink:href="#MicrosoftYaHei-49"/>
       <use x="200" xlink:href="#MicrosoftYaHei-54"/>
      </g>
     </g>
    </g>
    <g id="ytick_2">
     <g id="line2d_19">
      <path clip-path="url(#pdb38c122a7)" d="M 106.848125 537.849125 
L 1178.208125 537.849125 
" style="fill:none;stroke:#b0b0b0;stroke-linecap:square;stroke-width:0.8;"/>
     </g>
     <g id="line2d_20">
      <g>
       <use style="stroke:#000000;" x="106.848125" xlink:href="#m555fb0af92" y="537.849125"/>
      </g>
     </g>
     <g id="text_11">
      <!-- 37.18 -->
      <g transform="translate(38.447188 546.64225)scale(0.22 -0.22)">
       <use xlink:href="#MicrosoftYaHei-51"/>
       <use x="58.642578" xlink:href="#MicrosoftYaHei-55"/>
       <use x="117.285156" xlink:href="#MicrosoftYaHei-46"/>
       <use x="141.357422" xlink:href="#MicrosoftYaHei-49"/>
       <use x="200" xlink:href="#MicrosoftYaHei-56"/>
      </g>
     </g>
    </g>
    <g id="ytick_3">
     <g id="line2d_21">
      <path clip-path="url(#pdb38c122a7)" d="M 106.848125 363.897125 
L 1178.208125 363.897125 
" style="fill:none;stroke:#b0b0b0;stroke-linecap:square;stroke-width:0.8;"/>
     </g>
     <g id="line2d_22">
      <g>
       <use style="stroke:#000000;" x="106.848125" xlink:href="#m555fb0af92" y="363.897125"/>
      </g>
     </g>
     <g id="text_12">
      <!-- 37.20 -->
      <g transform="translate(38.447188 372.69025)scale(0.22 -0.22)">
       <use xlink:href="#MicrosoftYaHei-51"/>
       <use x="58.642578" xlink:href="#MicrosoftYaHei-55"/>
       <use x="117.285156" xlink:href="#MicrosoftYaHei-46"/>
       <use x="141.357422" xlink:href="#MicrosoftYaHei-50"/>
       <use x="200" xlink:href="#MicrosoftYaHei-48"/>
      </g>
     </g>
    </g>
    <g id="ytick_4">
     <g id="line2d_23">
      <path clip-path="url(#pdb38c122a7)" d="M 106.848125 189.945125 
L 1178.208125 189.945125 
" style="fill:none;stroke:#b0b0b0;stroke-linecap:square;stroke-width:0.8;"/>
     </g>
     <g id="line2d_24">
      <g>
       <use style="stroke:#000000;" x="106.848125" xlink:href="#m555fb0af92" y="189.945125"/>
      </g>
     </g>
     <g id="text_13">
      <!-- 37.22 -->
      <g transform="translate(38.447188 198.73825)scale(0.22 -0.22)">
       <use xlink:href="#MicrosoftYaHei-51"/>
       <use x="58.642578" xlink:href="#MicrosoftYaHei-55"/>
       <use x="117.285156" xlink:href="#MicrosoftYaHei-46"/>
       <use x="141.357422" xlink:href="#MicrosoftYaHei-50"/>
       <use x="200" xlink:href="#MicrosoftYaHei-50"/>
      </g>
     </g>
    </g>
    <g id="ytick_5">
     <g id="line2d_25">
      <path clip-path="url(#pdb38c122a7)" d="M 106.848125 15.993125 
L 1178.208125 15.993125 
" style="fill:none;stroke:#b0b0b0;stroke-linecap:square;stroke-width:0.8;"/>
     </g>
     <g id="line2d_26">
      <g>
       <use style="stroke:#000000;" x="106.848125" xlink:href="#m555fb0af92" y="15.993125"/>
      </g>
     </g>
     <g id="text_14">
      <!-- 37.24 -->
      <g transform="translate(38.447188 24.78625)scale(0.22 -0.22)">
       <use xlink:href="#MicrosoftYaHei-51"/>
       <use x="58.642578" xlink:href="#MicrosoftYaHei-55"/>
       <use x="117.285156" xlink:href="#MicrosoftYaHei-46"/>
       <use x="141.357422" xlink:href="#MicrosoftYaHei-50"/>
       <use x="200" xlink:href="#MicrosoftYaHei-52"/>
      </g>
     </g>
    </g>
    <g id="text_15">
     <!-- Latitude -->
     <defs>
      <path d="M 9.8125 50.25 
Q 17.875 55.28125 28.421875 55.28125 
Q 47.953125 55.28125 47.953125 34.765625 
L 47.953125 0 
L 38.484375 0 
L 38.484375 8.34375 
L 38.234375 8.34375 
Q 32.625 -1.265625 21.6875 -1.265625 
Q 13.8125 -1.265625 9.171875 2.984375 
Q 4.546875 7.234375 4.546875 14.453125 
Q 4.546875 29.59375 22.46875 32.078125 
L 38.484375 34.328125 
Q 38.484375 47.5625 27.546875 47.5625 
Q 17.828125 47.5625 9.8125 41.015625 
z
M 25.828125 25.390625 
Q 19.1875 24.515625 16.671875 22.0625 
Q 14.15625 19.625 14.15625 15.234375 
Q 14.15625 11.375 16.890625 8.9375 
Q 19.625 6.5 24.125 6.5 
Q 30.375 6.5 34.421875 10.890625 
Q 38.484375 15.28125 38.484375 21.921875 
L 38.484375 27.09375 
z
" id="MicrosoftYaHei-97"/>
     </defs>
     <g transform="translate(27.98375 458.089188)rotate(-90)scale(0.26 -0.26)">
      <use xlink:href="#MicrosoftYaHei-76"/>
      <use x="51.318359" xlink:href="#MicrosoftYaHei-97"/>
      <use x="106.591797" xlink:href="#MicrosoftYaHei-116"/>
      <use x="143.847656" xlink:href="#MicrosoftYaHei-105"/>
      <use x="170.458984" xlink:href="#MicrosoftYaHei-116"/>
      <use x="207.714844" xlink:href="#MicrosoftYaHei-117"/>
      <use x="269.335938" xlink:href="#MicrosoftYaHei-100"/>
      <use x="333.300781" xlink:href="#MicrosoftYaHei-101"/>
     </g>
    </g>
   </g>
   <g id="line2d_27">
    <defs>
     <path d="M 0 10 
C 2.652031 10 5.195799 8.946337 7.071068 7.071068 
C 8.946337 5.195799 10 2.652031 10 0 
C 10 -2.652031 8.946337 -5.195799 7.071068 -7.071068 
C 5.195799 -8.946337 2.652031 -10 0 -10 
C -2.652031 -10 -5.195799 -8.946337 -7.071068 -7.071068 
C -8.946337 -5.195799 -10 -2.652031 -10 0 
C -10 2.652031 -8.946337 5.195799 -7.071068 7.071068 
C -5.195799 8.946337 -2.652031 10 0 10 
z
" id="me01e07a840" style="stroke:#1f77b4;"/>
    </defs>
    <g clip-path="url(#pdb38c122a7)">
     <use style="fill:#1f77b4;stroke:#1f77b4;" x="703.947663" xlink:href="#me01e07a840" y="272.476651"/>
    </g>
   </g>
   <g id="line2d_28">
    <defs>
     <path d="M 0 10 
C 2.652031 10 5.195799 8.946337 7.071068 7.071068 
C 8.946337 5.195799 10 2.652031 10 0 
C 10 -2.652031 8.946337 -5.195799 7.071068 -7.071068 
C 5.195799 -8.946337 2.652031 -10 0 -10 
C -2.652031 -10 -5.195799 -8.946337 -7.071068 -7.071068 
C -8.946337 -5.195799 -10 -2.652031 -10 0 
C -10 2.652031 -8.946337 5.195799 -7.071068 7.071068 
C -5.195799 8.946337 -2.652031 10 0 10 
z
" id="m5e03e57941" style="stroke:#ff7f0e;"/>
    </defs>
    <g clip-path="url(#pdb38c122a7)">
     <use style="fill:#ff7f0e;stroke:#ff7f0e;" x="234.29405" xlink:href="#m5e03e57941" y="315.973349"/>
    </g>
   </g>
   <g id="line2d_29">
    <defs>
     <path d="M 0 10 
C 2.652031 10 5.195799 8.946337 7.071068 7.071068 
C 8.946337 5.195799 10 2.652031 10 0 
C 10 -2.652031 8.946337 -5.195799 7.071068 -7.071068 
C 5.195799 -8.946337 2.652031 -10 0 -10 
C -2.652031 -10 -5.195799 -8.946337 -7.071068 -7.071068 
C -8.946337 -5.195799 -10 -2.652031 -10 0 
C -10 2.652031 -8.946337 5.195799 -7.071068 7.071068 
C -5.195799 8.946337 -2.652031 10 0 10 
z
" id="maa512f5202" style="stroke:#2ca02c;"/>
    </defs>
    <g clip-path="url(#pdb38c122a7)">
     <use style="fill:#2ca02c;stroke:#2ca02c;" x="326.752418" xlink:href="#maa512f5202" y="663.868651"/>
    </g>
   </g>
   <g id="line2d_30">
    <defs>
     <path d="M 0 10 
C 2.652031 10 5.195799 8.946337 7.071068 7.071068 
C 8.946337 5.195799 10 2.652031 10 0 
C 10 -2.652031 8.946337 -5.195799 7.071068 -7.071068 
C 5.195799 -8.946337 2.652031 -10 0 -10 
C -2.652031 -10 -5.195799 -8.946337 -7.071068 -7.071068 
C -8.946337 -5.195799 -10 -2.652031 -10 0 
C -10 2.652031 -8.946337 5.195799 -7.071068 7.071068 
C -5.195799 8.946337 -2.652031 10 0 10 
z
" id="m334f75d3ff" style="stroke:#d62728;"/>
    </defs>
    <g clip-path="url(#pdb38c122a7)">
     <use style="fill:#d62728;stroke:#d62728;" x="300.289826" xlink:href="#m334f75d3ff" y="488.986008"/>
    </g>
   </g>
   <g id="line2d_31">
    <defs>
     <path d="M 0 10 
C 2.652031 10 5.195799 8.946337 7.071068 7.071068 
C 8.946337 5.195799 10 2.652031 10 0 
C 10 -2.652031 8.946337 -5.195799 7.071068 -7.071068 
C 5.195799 -8.946337 2.652031 -10 0 -10 
C -2.652031 -10 -5.195799 -8.946337 -7.071068 -7.071068 
C -8.946337 -5.195799 -10 -2.652031 -10 0 
C -10 2.652031 -8.946337 5.195799 -7.071068 7.071068 
C -5.195799 8.946337 -2.652031 10 0 10 
z
" id="m5444755b4a" style="stroke:#9467bd;"/>
    </defs>
    <g clip-path="url(#pdb38c122a7)">
     <use style="fill:#9467bd;stroke:#9467bd;" x="577.465963" xlink:href="#m5444755b4a" y="229.980178"/>
    </g>
   </g>
   <g id="line2d_32">
    <defs>
     <path d="M 0 10 
C 2.652031 10 5.195799 8.946337 7.071068 7.071068 
C 8.946337 5.195799 10 2.652031 10 0 
C 10 -2.652031 8.946337 -5.195799 7.071068 -7.071068 
C 5.195799 -8.946337 2.652031 -10 0 -10 
C -2.652031 -10 -5.195799 -8.946337 -7.071068 -7.071068 
C -8.946337 -5.195799 -10 -2.652031 -10 0 
C -10 2.652031 -8.946337 5.195799 -7.071068 7.071068 
C -5.195799 8.946337 -2.652031 10 0 10 
z
" id="mc60abefdb6" style="stroke:#8c564b;"/>
    </defs>
    <g clip-path="url(#pdb38c122a7)">
     <use style="fill:#8c564b;stroke:#8c564b;" x="1125.206415" xlink:href="#mc60abefdb6" y="239.97372"/>
    </g>
   </g>
   <g id="line2d_33">
    <defs>
     <path d="M 0 10 
C 2.652031 10 5.195799 8.946337 7.071068 7.071068 
C 8.946337 5.195799 10 2.652031 10 0 
C 10 -2.652031 8.946337 -5.195799 7.071068 -7.071068 
C 5.195799 -8.946337 2.652031 -10 0 -10 
C -2.652031 -10 -5.195799 -8.946337 -7.071068 -7.071068 
C -8.946337 -5.195799 -10 -2.652031 -10 0 
C -10 2.652031 -8.946337 5.195799 -7.071068 7.071068 
C -5.195799 8.946337 -2.652031 10 0 10 
z
" id="mb412692844" style="stroke:#e377c2;"/>
    </defs>
    <g clip-path="url(#pdb38c122a7)">
     <use style="fill:#e377c2;stroke:#e377c2;" x="950.329853" xlink:href="#mb412692844" y="120.007723"/>
    </g>
   </g>
   <g id="line2d_34">
    <defs>
     <path d="M 0 10 
C 2.652031 10 5.195799 8.946337 7.071068 7.071068 
C 8.946337 5.195799 10 2.652031 10 0 
C 10 -2.652031 8.946337 -5.195799 7.071068 -7.071068 
C 5.195799 -8.946337 2.652031 -10 0 -10 
C -2.652031 -10 -5.195799 -8.946337 -7.071068 -7.071068 
C -8.946337 -5.195799 -10 -2.652031 -10 0 
C -10 2.652031 -8.946337 5.195799 -7.071068 7.071068 
C -5.195799 8.946337 -2.652031 10 0 10 
z
" id="m9cb9614630" style="stroke:#7f7f7f;"/>
    </defs>
    <g clip-path="url(#pdb38c122a7)">
     <use style="fill:#7f7f7f;stroke:#7f7f7f;" x="458.024628" xlink:href="#m9cb9614630" y="641.733259"/>
    </g>
   </g>
   <g id="line2d_35">
    <defs>
     <path d="M 0 -20 
L -4.49028 -6.18034 
L -19.02113 -6.18034 
L -7.265425 2.36068 
L -11.755705 16.18034 
L -0 7.63932 
L 11.755705 16.18034 
L 7.265425 2.36068 
L 19.02113 -6.18034 
L 4.49028 -6.18034 
z
" id="m3a91aabdfb" style="stroke:#000000;stroke-linejoin:bevel;"/>
    </defs>
    <g clip-path="url(#pdb38c122a7)">
     <use style="stroke:#000000;stroke-linejoin:bevel;" x="435.908696" xlink:href="#m3a91aabdfb" y="355.682725"/>
    </g>
   </g>
   <g id="patch_3">
    <path d="M 106.848125 798.777125 
L 106.848125 15.993125 
" style="fill:none;stroke:#000000;stroke-linecap:square;stroke-linejoin:miter;stroke-width:0.8;"/>
   </g>
   <g id="patch_4">
    <path d="M 1178.208125 798.777125 
L 1178.208125 15.993125 
" style="fill:none;stroke:#000000;stroke-linecap:square;stroke-linejoin:miter;stroke-width:0.8;"/>
   </g>
   <g id="patch_5">
    <path d="M 106.848125 798.777125 
L 1178.208125 798.777125 
" style="fill:none;stroke:#000000;stroke-linecap:square;stroke-linejoin:miter;stroke-width:0.8;"/>
   </g>
   <g id="patch_6">
    <path d="M 106.848125 15.993125 
L 1178.208125 15.993125 
" style="fill:none;stroke:#000000;stroke-linecap:square;stroke-linejoin:miter;stroke-width:0.8;"/>
   </g>
   <g id="legend_1">
    <g id="patch_7">
     <path d="M 994.7425 788.777125 
L 1164.208125 788.777125 
Q 1168.208125 788.777125 1168.208125 784.777125 
L 1168.208125 508.14275 
Q 1168.208125 504.14275 1164.208125 504.14275 
L 994.7425 504.14275 
Q 990.7425 504.14275 990.7425 508.14275 
L 990.7425 784.777125 
Q 990.7425 788.777125 994.7425 788.777125 
z
" style="fill:#ffffff;opacity:0.8;stroke:#cccccc;stroke-linejoin:miter;"/>
    </g>
    <g id="line2d_36"/>
    <g id="line2d_37">
     <g>
      <use style="fill:#1f77b4;stroke:#1f77b4;" x="1018.7425" xlink:href="#me01e07a840" y="521.13025"/>
     </g>
    </g>
    <g id="text_16">
     <!-- R0001 -->
     <defs>
      <path d="M 64.984375 0 
L 53.46875 0 
L 40.921875 21 
Q 37.15625 27.296875 34.03125 29.5625 
Q 30.90625 31.84375 26.5625 31.84375 
L 19.53125 31.84375 
L 19.53125 0 
L 9.765625 0 
L 9.765625 75.640625 
L 32.8125 75.640625 
Q 43.84375 75.640625 50.09375 70.3125 
Q 56.34375 64.984375 56.34375 55.421875 
Q 56.34375 39.703125 39.546875 35.015625 
L 39.546875 34.765625 
Q 42.671875 33.453125 44.9375 31 
Q 47.21875 28.5625 50.828125 22.65625 
z
M 19.53125 67.09375 
L 19.53125 40.375 
L 31.0625 40.375 
Q 37.75 40.375 41.921875 44.28125 
Q 46.09375 48.1875 46.09375 54.546875 
Q 46.09375 60.453125 42.28125 63.765625 
Q 38.484375 67.09375 31.203125 67.09375 
z
" id="MicrosoftYaHei-82"/>
     </defs>
     <g transform="translate(1054.7425 528.13025)scale(0.2 -0.2)">
      <use xlink:href="#MicrosoftYaHei-82"/>
      <use x="65.283203" xlink:href="#MicrosoftYaHei-48"/>
      <use x="123.925781" xlink:href="#MicrosoftYaHei-48"/>
      <use x="182.568359" xlink:href="#MicrosoftYaHei-48"/>
      <use x="241.210938" xlink:href="#MicrosoftYaHei-49"/>
     </g>
    </g>
    <g id="line2d_38"/>
    <g id="line2d_39">
     <g>
      <use style="fill:#ff7f0e;stroke:#ff7f0e;" x="1018.7425" xlink:href="#m5e03e57941" y="552.089625"/>
     </g>
    </g>
    <g id="text_17">
     <!-- R0002 -->
     <g transform="translate(1054.7425 559.089625)scale(0.2 -0.2)">
      <use xlink:href="#MicrosoftYaHei-82"/>
      <use x="65.283203" xlink:href="#MicrosoftYaHei-48"/>
      <use x="123.925781" xlink:href="#MicrosoftYaHei-48"/>
      <use x="182.568359" xlink:href="#MicrosoftYaHei-48"/>
      <use x="241.210938" xlink:href="#MicrosoftYaHei-50"/>
     </g>
    </g>
    <g id="line2d_40"/>
    <g id="line2d_41">
     <g>
      <use style="fill:#2ca02c;stroke:#2ca02c;" x="1018.7425" xlink:href="#maa512f5202" y="583.049"/>
     </g>
    </g>
    <g id="text_18">
     <!-- R0003 -->
     <g transform="translate(1054.7425 590.049)scale(0.2 -0.2)">
      <use xlink:href="#MicrosoftYaHei-82"/>
      <use x="65.283203" xlink:href="#MicrosoftYaHei-48"/>
      <use x="123.925781" xlink:href="#MicrosoftYaHei-48"/>
      <use x="182.568359" xlink:href="#MicrosoftYaHei-48"/>
      <use x="241.210938" xlink:href="#MicrosoftYaHei-51"/>
     </g>
    </g>
    <g id="line2d_42"/>
    <g id="line2d_43">
     <g>
      <use style="fill:#d62728;stroke:#d62728;" x="1018.7425" xlink:href="#m334f75d3ff" y="614.008375"/>
     </g>
    </g>
    <g id="text_19">
     <!-- R0004 -->
     <g transform="translate(1054.7425 621.008375)scale(0.2 -0.2)">
      <use xlink:href="#MicrosoftYaHei-82"/>
      <use x="65.283203" xlink:href="#MicrosoftYaHei-48"/>
      <use x="123.925781" xlink:href="#MicrosoftYaHei-48"/>
      <use x="182.568359" xlink:href="#MicrosoftYaHei-48"/>
      <use x="241.210938" xlink:href="#MicrosoftYaHei-52"/>
     </g>
    </g>
    <g id="line2d_44"/>
    <g id="line2d_45">
     <g>
      <use style="fill:#9467bd;stroke:#9467bd;" x="1018.7425" xlink:href="#m5444755b4a" y="644.96775"/>
     </g>
    </g>
    <g id="text_20">
     <!-- R0005 -->
     <defs>
      <path d="M 51.46875 23.34375 
Q 51.46875 12.25 44.109375 5.46875 
Q 36.765625 -1.3125 24.359375 -1.3125 
Q 13.71875 -1.3125 8.5 1.859375 
L 8.5 11.625 
Q 16.15625 6.640625 24.125 6.640625 
Q 32.03125 6.640625 36.890625 11 
Q 41.75 15.375 41.75 22.609375 
Q 41.75 29.828125 36.6875 33.859375 
Q 31.640625 37.890625 22.40625 37.890625 
Q 15.28125 37.890625 9.578125 37.25 
L 12.359375 75.640625 
L 47.703125 75.640625 
L 47.703125 67.234375 
L 20.40625 67.234375 
L 18.84375 45.796875 
L 25.734375 46.09375 
Q 37.75 46.09375 44.609375 40.109375 
Q 51.46875 34.125 51.46875 23.34375 
z
" id="MicrosoftYaHei-53"/>
     </defs>
     <g transform="translate(1054.7425 651.96775)scale(0.2 -0.2)">
      <use xlink:href="#MicrosoftYaHei-82"/>
      <use x="65.283203" xlink:href="#MicrosoftYaHei-48"/>
      <use x="123.925781" xlink:href="#MicrosoftYaHei-48"/>
      <use x="182.568359" xlink:href="#MicrosoftYaHei-48"/>
      <use x="241.210938" xlink:href="#MicrosoftYaHei-53"/>
     </g>
    </g>
    <g id="line2d_46"/>
    <g id="line2d_47">
     <g>
      <use style="fill:#8c564b;stroke:#8c564b;" x="1018.7425" xlink:href="#mc60abefdb6" y="675.927125"/>
     </g>
    </g>
    <g id="text_21">
     <!-- R0006 -->
     <g transform="translate(1054.7425 682.927125)scale(0.2 -0.2)">
      <use xlink:href="#MicrosoftYaHei-82"/>
      <use x="65.283203" xlink:href="#MicrosoftYaHei-48"/>
      <use x="123.925781" xlink:href="#MicrosoftYaHei-48"/>
      <use x="182.568359" xlink:href="#MicrosoftYaHei-48"/>
      <use x="241.210938" xlink:href="#MicrosoftYaHei-54"/>
     </g>
    </g>
    <g id="line2d_48"/>
    <g id="line2d_49">
     <g>
      <use style="fill:#e377c2;stroke:#e377c2;" x="1018.7425" xlink:href="#mb412692844" y="706.8865"/>
     </g>
    </g>
    <g id="text_22">
     <!-- R0007 -->
     <g transform="translate(1054.7425 713.8865)scale(0.2 -0.2)">
      <use xlink:href="#MicrosoftYaHei-82"/>
      <use x="65.283203" xlink:href="#MicrosoftYaHei-48"/>
      <use x="123.925781" xlink:href="#MicrosoftYaHei-48"/>
      <use x="182.568359" xlink:href="#MicrosoftYaHei-48"/>
      <use x="241.210938" xlink:href="#MicrosoftYaHei-55"/>
     </g>
    </g>
    <g id="line2d_50"/>
    <g id="line2d_51">
     <g>
      <use style="fill:#7f7f7f;stroke:#7f7f7f;" x="1018.7425" xlink:href="#m9cb9614630" y="737.845875"/>
     </g>
    </g>
    <g id="text_23">
     <!-- R0008 -->
     <g transform="translate(1054.7425 744.845875)scale(0.2 -0.2)">
      <use xlink:href="#MicrosoftYaHei-82"/>
      <use x="65.283203" xlink:href="#MicrosoftYaHei-48"/>
      <use x="123.925781" xlink:href="#MicrosoftYaHei-48"/>
      <use x="182.568359" xlink:href="#MicrosoftYaHei-48"/>
      <use x="241.210938" xlink:href="#MicrosoftYaHei-56"/>
     </g>
    </g>
    <g id="line2d_52"/>
    <g id="line2d_53">
     <g>
      <use style="stroke:#000000;stroke-linejoin:bevel;" x="1018.7425" xlink:href="#m3a91aabdfb" y="768.80525"/>
     </g>
    </g>
    <g id="text_24">
     <!-- MonoPolar -->
     <defs>
      <path d="M 78.171875 0 
L 78.171875 50.09375 
Q 78.171875 56.296875 78.90625 64.984375 
L 78.65625 64.984375 
Q 77.390625 59.515625 76.421875 57.375 
L 51.46875 0 
L 46.046875 0 
L 21.140625 56.9375 
Q 20.265625 58.890625 18.890625 64.984375 
L 18.609375 64.984375 
Q 19.09375 59.71875 19.09375 49.65625 
L 19.09375 0 
L 9.765625 0 
L 9.765625 75.640625 
L 23 75.640625 
L 45.3125 23.78125 
Q 47.859375 17.828125 48.6875 14.5 
L 49.03125 14.5 
Q 51.5625 21.484375 52.59375 23.96875 
L 75.296875 75.640625 
L 87.890625 75.640625 
L 87.890625 0 
z
" id="MicrosoftYaHei-77"/>
      <path d="M 19.53125 28.265625 
L 19.53125 0 
L 9.765625 0 
L 9.765625 75.640625 
L 31.25 75.640625 
Q 43.5 75.640625 50.265625 69.71875 
Q 57.03125 63.8125 57.03125 52.828125 
Q 57.03125 41.703125 49.125 34.78125 
Q 41.21875 27.875 29.34375 28.265625 
z
M 19.53125 67.046875 
L 19.53125 36.859375 
L 28.5625 36.859375 
Q 37.5 36.859375 42.140625 40.890625 
Q 46.78125 44.921875 46.78125 52.4375 
Q 46.78125 67.046875 29.5 67.046875 
z
" id="MicrosoftYaHei-80"/>
      <path d="M 8.5 0 
L 8.5 79.9375 
L 18.0625 79.9375 
L 18.0625 0 
z
" id="MicrosoftYaHei-108"/>
      <path d="M 37.5 44.53125 
Q 35.109375 46.234375 30.90625 46.234375 
Q 25.34375 46.234375 21.71875 41.03125 
Q 18.109375 35.84375 18.109375 27.34375 
L 18.109375 0 
L 8.546875 0 
L 8.546875 54 
L 18.109375 54 
L 18.109375 43.015625 
L 18.3125 43.015625 
Q 22.40625 54.9375 32.46875 54.9375 
Q 35.75 54.9375 37.5 54.203125 
z
" id="MicrosoftYaHei-114"/>
     </defs>
     <g transform="translate(1054.7425 775.80525)scale(0.2 -0.2)">
      <use xlink:href="#MicrosoftYaHei-77"/>
      <use x="97.705078" xlink:href="#MicrosoftYaHei-111"/>
      <use x="161.279297" xlink:href="#MicrosoftYaHei-110"/>
      <use x="222.900391" xlink:href="#MicrosoftYaHei-111"/>
      <use x="286.474609" xlink:href="#MicrosoftYaHei-80"/>
      <use x="343.65625" xlink:href="#MicrosoftYaHei-111"/>
      <use x="407.230469" xlink:href="#MicrosoftYaHei-108"/>
      <use x="433.841797" xlink:href="#MicrosoftYaHei-97"/>
      <use x="489.115234" xlink:href="#MicrosoftYaHei-114"/>
     </g>
    </g>
   </g>
  </g>
 </g>
 <defs>
  <clipPath id="pdb38c122a7">
   <rect height="782.784" width="1071.36" x="106.848125" y="15.993125"/>
  </clipPath>
 </defs>
</svg>
